<?xml version="1.0" encoding="utf-8"?>
<!-- Generator: Adobe Illustrator 16.0.0, SVG Export Plug-In . SVG Version: 6.00 Build 0)  -->
<!DOCTYPE svg PUBLIC "-//W3C//DTD SVG 1.1//EN" "http://www.w3.org/Graphics/SVG/1.1/DTD/svg11.dtd">
<svg version="1.1" id="Layer_1" xmlns="http://www.w3.org/2000/svg" xmlns:xlink="http://www.w3.org/1999/xlink" x="0px" y="0px"
	 width="595.28px" height="841.89px" viewBox="0 0 595.28 841.89" enable-background="new 0 0 595.28 841.89" xml:space="preserve">
<g>
	<path fill="#FBB516" stroke="#F58020" stroke-width="5" stroke-miterlimit="10" d="M202.917,307.81
		c0.148,1.06-0.191,2.041-1.021,2.948c-0.833,0.907-1.966,1.701-3.401,2.38c-1.438,0.681-3.026,1.173-4.762,1.475
		c-1.74,0.305-3.44,0.453-5.103,0.453c-2.419,0-4.46-0.339-6.122-1.021c-1.666-0.68-2.647-1.774-2.948-3.288
		c-0.907-6.952-1.513-14.173-1.814-21.656c-0.305-7.483-0.454-14.814-0.454-21.997c0-7.179,0.113-14.021,0.34-20.522
		c0.227-6.499,0.489-12.32,0.794-17.462c0.301-5.138,0.603-9.372,0.907-12.698c0.301-3.324,0.528-5.443,0.68-6.35
		c0.302-1.814,1.248-3.136,2.834-3.968c1.588-0.83,3.437-1.248,5.556-1.248c2.268,0,4.344,0.531,6.237,1.587
		c1.889,1.059,2.682,2.573,2.38,4.535c-0.152,1.06-0.152,4.762,0,11.112c0.15,6.349,0.454,14.173,0.907,23.471
		c0.454,9.297,1.095,19.428,1.928,30.387C200.685,286.912,201.705,297.53,202.917,307.81z M178.879,187.849
		c0-3.476,1.094-6.236,3.288-8.277c2.19-2.041,5.177-3.062,8.958-3.062c3.777,0,6.764,1.021,8.957,3.062
		c2.189,2.041,3.289,4.801,3.289,8.277c0,3.479-1.099,6.236-3.289,8.277c-2.193,2.041-5.18,3.062-8.957,3.062
		c-3.781,0-6.768-1.021-8.958-3.062C179.974,194.085,178.879,191.329,178.879,187.849z"/>
	<path fill="#FBB516" stroke="#F58020" stroke-width="5" stroke-miterlimit="10" d="M241.237,187.169
		c-2.572,17.085-4.309,33.072-5.215,47.961c-0.907,14.892-0.985,28.31-0.227,40.251c5.29-1.208,9.751-3.55,13.379-7.029
		c3.628-3.476,6.611-7.633,8.958-12.472c2.342-4.837,4.156-10.166,5.442-15.987c1.283-5.818,2.229-11.679,2.835-17.575
		c0.603-5.895,0.98-11.639,1.134-17.233c0.148-5.592,0.301-10.581,0.453-14.967c0-1.662,0.982-2.984,2.948-3.969
		c1.962-0.981,4.23-1.475,6.803-1.475c3.022,0,5.743,0.645,8.163,1.928c2.417,1.286,3.551,3.214,3.402,5.783
		c-0.306,8.015-1.248,16.973-2.835,26.873c-1.588,9.903-4.195,19.388-7.824,28.459c-3.628,9.07-8.469,17.12-14.513,24.15
		c-6.049,7.03-13.833,11.831-23.357,14.4c1.962,2.721,4.797,5.254,8.504,7.597c3.703,2.345,8.199,3.44,13.493,3.288
		c3.324,0,6.498-0.755,9.524-2.267c3.022-1.51,5.743-3.438,8.164-5.783c2.417-2.342,4.421-4.951,6.009-7.824
		c1.587-2.87,2.529-5.669,2.835-8.391c0.301-1.662,0.981-2.909,2.04-3.742c1.057-0.83,2.19-1.248,3.402-1.248
		c1.662,0,3.097,0.532,4.309,1.588c1.209,1.059,1.661,2.646,1.36,4.761c-0.453,3.934-1.74,7.902-3.854,11.906
		c-2.119,4.007-4.841,7.674-8.164,10.998c-3.327,3.327-7.183,6.048-11.565,8.164c-4.387,2.119-9.071,3.174-14.06,3.174
		c-4.84,0.152-9.298-0.528-13.379-2.041c-4.082-1.509-7.636-3.55-10.658-6.123c0.603,3.026,1.248,5.783,1.927,8.277
		c0.68,2.494,1.474,4.801,2.382,6.917c0.453,1.211,0.375,2.345-0.227,3.401c-0.606,1.06-1.588,1.964-2.948,2.721
		c-1.361,0.755-2.948,1.361-4.762,1.814c-1.814,0.454-3.554,0.681-5.216,0.681c-1.665,0-3.139-0.227-4.422-0.681
		c-1.286-0.453-2.155-1.286-2.607-2.494c-2.42-5.744-4.801-13.075-7.144-21.997c-2.346-8.918-4.16-19.197-5.442-30.84
		c-1.286-11.639-1.889-24.491-1.814-38.55c0.079-14.06,1.248-28.949,3.515-44.674c0.302-1.662,1.662-2.834,4.083-3.515
		c2.417-0.681,5.138-1.021,8.163-1.021c4.23,0,8.199,0.605,11.906,1.814C239.838,183.392,241.539,185.053,241.237,187.169z"/>
	<path fill="#FBB516" stroke="#F58020" stroke-width="5" stroke-miterlimit="10" d="M333.756,187.169
		c-2.571,17.085-4.309,33.072-5.215,47.961c-0.907,14.892-0.986,28.31-0.228,40.251c5.29-1.208,9.751-3.55,13.38-7.029
		c3.628-3.476,6.611-7.633,8.957-12.472c2.343-4.837,4.156-10.166,5.442-15.987c1.283-5.818,2.229-11.679,2.835-17.575
		c0.603-5.895,0.98-11.639,1.134-17.233c0.148-5.592,0.301-10.581,0.453-14.967c0-1.662,0.981-2.984,2.948-3.969
		c1.963-0.981,4.23-1.475,6.803-1.475c3.022,0,5.743,0.645,8.164,1.928c2.416,1.286,3.551,3.214,3.402,5.783
		c-0.306,8.015-1.248,16.973-2.835,26.873c-1.588,9.903-4.196,19.388-7.824,28.459c-3.628,9.07-8.469,17.12-14.513,24.15
		c-6.049,7.03-13.833,11.831-23.357,14.4c1.963,2.721,4.797,5.254,8.504,7.597c3.703,2.345,8.199,3.44,13.493,3.288
		c3.323,0,6.497-0.755,9.524-2.267c3.021-1.51,5.742-3.438,8.163-5.783c2.417-2.342,4.422-4.951,6.01-7.824
		c1.587-2.87,2.529-5.669,2.835-8.391c0.301-1.662,0.98-2.909,2.04-3.742c1.056-0.83,2.19-1.248,3.401-1.248
		c1.662,0,3.097,0.532,4.309,1.588c1.209,1.059,1.662,2.646,1.361,4.761c-0.454,3.934-1.74,7.902-3.855,11.906
		c-2.119,4.007-4.841,7.674-8.163,10.998c-3.327,3.327-7.183,6.048-11.565,8.164c-4.387,2.119-9.071,3.174-14.06,3.174
		c-4.841,0.152-9.299-0.528-13.38-2.041c-4.082-1.509-7.636-3.55-10.658-6.123c0.603,3.026,1.247,5.783,1.928,8.277
		c0.68,2.494,1.474,4.801,2.381,6.917c0.453,1.211,0.376,2.345-0.227,3.401c-0.606,1.06-1.588,1.964-2.948,2.721
		c-1.36,0.755-2.948,1.361-4.762,1.814c-1.814,0.454-3.555,0.681-5.217,0.681c-1.664,0-3.139-0.227-4.421-0.681
		c-1.287-0.453-2.155-1.286-2.608-2.494c-2.42-5.744-4.801-13.075-7.144-21.997c-2.346-8.918-4.159-19.197-5.442-30.84
		c-1.286-11.639-1.889-24.491-1.813-38.55c0.078-14.06,1.247-28.949,3.515-44.674c0.302-1.662,1.661-2.834,4.082-3.515
		c2.417-0.681,5.138-1.021,8.163-1.021c4.23,0,8.199,0.605,11.906,1.814C332.357,183.392,334.058,185.053,333.756,187.169z"/>
	<path fill="#FBB516" stroke="#F58020" stroke-width="5" stroke-miterlimit="10" d="M419.473,258.601
		c0.453,5.896,1.282,11.565,2.494,17.008c1.209,5.442,2.758,10.283,4.649,14.514c1.888,4.233,4.082,7.561,6.577,9.977
		c2.493,2.42,5.25,3.628,8.276,3.628c2.569,0,4.496-1.396,5.782-4.195c1.282-2.796,2.229-6.044,2.834-9.751
		c0.604-3.703,0.908-7.406,0.908-11.111c0-3.703-0.079-6.538-0.227-8.504c-0.153-1.814,0.64-3.175,2.38-4.082
		c1.737-0.907,3.664-1.36,5.782-1.36c2.117,0,4.117,0.453,6.011,1.36c1.888,0.907,2.908,2.346,3.062,4.309
		c0.301,3.628,0,7.937-0.908,12.926c-0.906,4.989-2.419,9.79-4.534,14.4c-2.12,4.613-4.841,8.581-8.164,11.905
		c-3.327,3.328-7.257,5.142-11.793,5.442c-7.106,0.606-13.645-0.829-19.615-4.308c-5.974-3.476-11.149-8.199-15.532-14.173
		c-4.388-5.971-7.864-12.813-10.433-20.522c-2.571-7.71-4.156-15.609-4.763-23.697c-0.602-8.086-0.035-16.023,1.702-23.811
		c1.735-7.785,4.762-14.587,9.07-20.41c4.308-5.818,10.013-10.432,17.121-13.833c7.104-3.401,15.722-4.724,25.851-3.969
		c4.231,0.306,7.786,1.701,10.659,4.196c2.87,2.494,5.216,5.633,7.029,9.411c1.814,3.78,3.175,7.937,4.083,12.473
		c0.905,4.535,1.473,9.035,1.699,13.492c0.227,4.461,0.227,8.618,0,12.473s-0.493,6.917-0.794,9.184
		c-0.151,1.514-0.832,2.722-2.041,3.629c-1.059,1.814-2.646,2.721-4.761,2.721L419.473,258.601z M457.797,246.583
		c0.149-2.721,0.112-6.538-0.113-11.452c-0.227-4.911-0.793-9.825-1.701-14.74c-0.908-4.911-2.192-9.219-3.855-12.926
		c-1.664-3.703-3.854-5.63-6.575-5.783c-4.536-0.301-8.43,0.759-11.68,3.175c-3.252,2.42-5.935,5.747-8.05,9.977
		c-2.118,4.234-3.705,9.185-4.763,14.854c-1.06,5.669-1.665,11.53-1.814,17.574L457.797,246.583z"/>
</g>
<text transform="matrix(1 0 0 1 169.1543 169.7515)" fill="#F58020" font-family="'AnakSultan-Regular'" font-size="66.3995">Baby</text>
</svg>
